:FULLY-SPECIFIED
:FORCE-ALL-JOINTS-BE-3DOF
:DEGREES
2344
root 1.41746 14.3458 -18.833 48.5464 -43.9361 64.1527
lfemur -21.1918 -3.22019 5.53392
ltibia 30.5871 -0 0
lfoot -9.62568 17.4554 -0.684753
ltoes -33.8565 0 0
rfemur -64.759 -7.96314 9.18135
rtibia 77.2004 -0 0
rfoot -14.5716 -12.2232 0.132817
rtoes 0.616915 -0 0
lowerback 20.7188 2.44322 -2.82156
upperback 0.459183 2.47419 0.209978
thorax -11.2886 1.27064 1.11883
lowerneck -5.78722 -1.7353 -4.33415
upperneck 3.28284 -1.98882 -0.147547
head 2.19573 -1.05762 0.658674
lclavicle -1.70955e-014 1.59028e-015 0
lhumerus -29.2583 -26.3888 86.8536
lradius 104.067 -0 0
lwrist 63.2583 0 0
lhand -18.9599 39.5858 0.0328743
lfingers 7.12502 -0 0
lthumb 7.34382 69.4654 0.0304911
rclavicle -1.70955e-014 1.59028e-015 0
rhumerus 43.5338 11.7187 -42.9039
rradius 51.9888 -0 0
rwrist 3.85656 0 0
rhand -7.02582 -40.609 -0.0506945
rfingers 7.12502 -0 0
rthumb 18.8469 -69.7292 -0.0517594
2345
root 1.53188 14.4046 -18.9858 35.4661 -58.0927 61.9319
lfemur -23.9157 -3.17309 6.11138
ltibia 30.4891 -0 0
lfoot -8.82139 16.1098 -0.644911
ltoes -32.3602 0 0
rfemur -64.0847 -6.8802 8.90142
rtibia 76.945 -0 0
rfoot -15.2051 -12.6418 0.124232
rtoes 0.291578 -0 0
lowerback 20.86 2.37833 -2.56079
upperback 0.442544 2.45346 0.253234
thorax -11.3745 1.24997 1.0191
lowerneck -5.8802 -1.27442 -3.97782
upperneck 3.38825 -1.37774 -0.542699
head 2.21769 -0.762071 0.486233
lclavicle -1.70955e-014 1.59028e-015 0
lhumerus -26.4841 -27.284 85.6943
lradius 104.776 -0 0
lwrist 63.1913 0 0
lhand -19.2032 39.4066 0.0232007
lfingers 7.12502 -0 0
lthumb 7.10903 69.2944 0.0210887
rclavicle -1.70955e-014 1.59028e-015 0
rhumerus 42.5678 12.5691 -42.5458
rradius 53.0898 -0 0
rwrist 3.20755 0 0
rhand -6.80998 -40.8677 -0.0471762
rfingers 7.12502 -0 0
rthumb 19.0544 -69.9664 -0.0482476
2346
root 1.64629 14.4633 -19.1386 17.3197 -70.5809 66.0215
lfemur -26.5806 -3.08277 6.60978
ltibia 30.4911 -0 0
lfoot -8.0429 14.8237 -0.588001
ltoes -30.9047 0 0
rfemur -63.4174 -5.80517 8.65977
rtibia 76.6964 -0 0
rfoot -15.8301 -13.0512 0.113192
rtoes -0.0232941 0 0
lowerback 20.9891 2.31223 -2.3034
upperback 0.422521 2.43164 0.296284
thorax -11.4575 1.22884 0.921585
lowerneck -5.96401 -0.813368 -3.62343
upperneck 3.49437 -0.766617 -0.935584
head 2.24139 -0.466699 0.315297
lclavicle -1.70955e-014 1.59028e-015 0
lhumerus -23.6508 -28.1723 84.5108
lradius 105.468 -0 0
lwrist 62.9798 0 0
lhand -19.4666 39.2321 0.0139878
lfingers 7.12502 -0 0
lthumb 6.85471 69.128 0.0121792
rclavicle -1.70955e-014 1.59028e-015 0
rhumerus 41.5933 13.4656 -42.2275
rradius 54.2015 -0 0
rwrist 2.56736 0 0
rhand -6.59353 -41.1191 -0.0427435
rfingers 7.12502 -0 0
rthumb 19.2625 -70.1958 -0.043788
2347
root 1.76071 14.522 -19.2915 -18.4606 -79.583 88.5442
lfemur -29.1618 -2.95356 7.01461
ltibia 30.6103 -0 0
lfoot -7.29847 13.6143 -0.51666
ltoes -29.5073 0 0
rfemur -62.7602 -4.74653 8.46179
rtibia 76.4575 -0 0
rfoot -16.4408 -13.453 0.100029
rtoes -0.324504 0 0
lowerback 21.1057 2.24518 -2.04959
upperback 0.399476 2.40893 0.33912
thorax -11.5373 1.20735 0.826373
lowerneck -6.03836 -0.353848 -3.27246
upperneck 3.60034 -0.157535 -1.3251
head 2.2668 -0.172438 0.14674
lclavicle -1.70955e-014 1.59028e-015 0
lhumerus -20.7682 -29.0517 83.3111
lradius 106.135 -0 0
lwrist 62.5994 0 0
lhand -19.7497 39.0593 0.00572709
lfingers 7.12502 -0 0
lthumb 6.58142 68.9627 0.00424146
rclavicle -1.70955e-014 1.59028e-015 0
rhumerus 40.6158 14.4114 -41.9548
rradius 55.3248 -0 0
rwrist 1.93615 0 0
rhand -6.37503 -41.3593 -0.0375287
rfingers 7.12502 -0 0
rthumb 19.4725 -70.4134 -0.0385122
2348
root 1.87512 14.5808 -19.4443 -79.9487 -81.1068 137.377
lfemur -31.6351 -2.791 7.31177
ltibia 30.8639 -0 0
lfoot -6.59621 12.4986 -0.434189
ltoes -28.185 0 0
rfemur -62.1155 -3.71291 8.31257
rtibia 76.2315 -0 0
rfoot -17.0314 -13.8492 0.0851144
rtoes -0.608853 0 0
lowerback 21.2093 2.17746 -1.79959
upperback 0.373773 2.38555 0.381734
thorax -11.6132 1.18557 0.733561
lowerneck -6.10299 0.102431 -2.92641
upperneck 3.70536 0.447392 -1.71017
head 2.29387 0.119781 -0.0185684
lclavicle -1.70955e-014 1.59028e-015 0
lhumerus -17.8468 -29.9217 82.104
lradius 106.767 -0 0
lwrist 62.0259 0 0
lhand -20.0518 38.8852 -0.00111409
lfingers 7.12502 -0 0
lthumb 6.28973 68.7955 -0.00227097
rclavicle -1.70955e-014 1.59028e-015 0
rhumerus 39.6404 15.4095 -41.7334
rradius 56.4602 -0 0
rwrist 1.31407 0 0
rhand -6.15299 -41.5845 -0.0316827
rfingers 7.12502 -0 0
rthumb 19.6859 -70.6151 -0.0325714
2349
root 1.98954 14.6395 -19.5971 -114.772 -77.8818 160.188
lfemur -33.9762 -2.60146 7.48776
ltibia 31.2689 -0 0
lfoot -5.94403 11.4936 -0.344437
ltoes -26.9547 0 0
rfemur -61.4858 -2.71305 8.21694
rtibia 76.0215 -0 0
rfoot -17.5963 -14.2414 0.0688579
rtoes -0.873143 0 0
lowerback 21.2995 2.10933 -1.55359
upperback 0.345776 2.36171 0.424117
thorax -11.6847 1.16362 0.643242
lowerneck -6.15769 0.553759 -2.58675
upperneck 3.80867 1.04604 -2.08973
head 2.32259 0.409024 -0.179756
lclavicle -1.70955e-014 1.59028e-015 0
lhumerus -14.8973 -30.7829 80.8985
lradius 107.355 -0 0
lwrist 61.2349 0 0
lhand -20.3725 38.7066 -0.00609781
lfingers 7.12502 -0 0
lthumb 5.98019 68.623 -0.00693521
rclavicle -1.70955e-014 1.59028e-015 0
rhumerus 38.6719 16.4627 -41.5693
rradius 57.6085 -0 0
rwrist 0.701263 0 0
rhand -5.92595 -41.7905 -0.0253779
rfingers 7.12502 -0 0
rthumb 19.904 -70.7969 -0.0261398
2350
root 2.10395 14.6983 -19.7499 -129.368 -76.0365 163.671
lfemur -36.1615 -2.3918 7.52968
ltibia 31.8426 -0 0
lfoot -5.34967 10.6159 -0.251651
ltoes -25.8337 0 0
rfemur -60.8736 -1.75578 8.17951
rtibia 75.8303 -0 0
rfoot -18.1297 -14.6313 0.0517065
rtoes -1.11418 0 0
lowerback 21.3759 2.04108 -1.31181
upperback 0.31585 2.33762 0.46626
thorax -11.7512 1.14158 0.555511
lowerneck -6.20228 0.998419 -2.25497
upperneck 3.90959 1.63627 -2.46276
head 2.35296 0.694356 -0.335955
lclavicle -1.70955e-014 1.59028e-015 0
lhumerus -11.931 -31.6374 79.7042
lradius 107.891 -0 0
lwrist 60.2022 0 0
lhand -20.7109 38.5204 -0.00882056
lfingers 7.12502 -0 0
lthumb 5.65338 68.442 -0.00936411
rclavicle -1.70955e-014 1.59028e-015 0
rhumerus 37.7148 17.5735 -41.4681
rradius 58.7704 -0 0
rwrist 0.0978868 0 0
rhand -5.69244 -41.9736 -0.0188118
rfingers 7.12502 -0 0
rthumb 20.1284 -70.9548 -0.0194172
2351
root 2.21837 14.757 -19.9028 -134.471 -77.234 158.984
lfemur -38.1673 -2.16884 7.42528
ltibia 32.6022 -0 0
lfoot -4.82072 9.88248 -0.160317
ltoes -24.8388 0 0
rfemur -60.281 -0.849999 8.20466
rtibia 75.6613 -0 0
rfoot -18.6258 -15.0208 0.0341485
rtoes -1.32876 0 0
lowerback 21.438 1.97296 -1.07446
upperback 0.28436 2.31351 0.508154
thorax -11.8122 1.11957 0.470459
lowerneck -6.23664 1.43469 -1.93255
upperneck 4.00745 2.21594 -2.82824
head 2.38499 0.97484 -0.486296
lclavicle -1.70955e-014 1.59028e-015 0
lhumerus -8.95965 -32.4885 78.5311
lradius 108.366 -0 0
lwrist 58.9034 0 0
lhand -21.0668 38.3235 -0.00891789
lfingers 7.12502 -0 0
lthumb 5.30984 68.2492 -0.00921096
rclavicle -1.70955e-014 1.59028e-015 0
rhumerus 36.7732 18.7445 -41.4358
rradius 59.9466 -0 0
rwrist -0.49591 0 0
rhand -5.45099 -42.1296 -0.0122115
rfingers 7.12502 -0 0
rthumb 20.3603 -71.0846 -0.0126344
2352
root 2.33278 14.8158 -20.0556 -125.08 -81.5649 141.643
lfemur -39.9703 -1.93896 7.16291
ltibia 33.5647 -0 0
lfoot -4.36464 9.30982 -0.0749711
ltoes -23.9873 0 0
rfemur -59.7104 -0.00465113 8.29662
rtibia 75.5173 -0 0
rfoot -19.079 -15.4116 0.0167178
rtoes -1.51368 0 0
lowerback 21.4854 1.90527 -0.841736
upperback 0.25167 2.28959 0.549789
thorax -11.867 1.09767 0.388178
lowerneck -6.26066 1.86087 -1.62095
upperneck 4.10164 2.78287 -3.18517
head 2.41871 1.24954 -0.629911
lclavicle -1.70955e-014 1.59028e-015 0
lhumerus -5.99502 -33.3408 77.3891
lradius 108.772 -0 0
lwrist 57.3143 0 0
lhand -21.4393 38.1127 -0.00606883
lfingers 7.12502 -0 0
lthumb 4.95014 68.0413 -0.00617388
rclavicle -1.70955e-014 1.59028e-015 0
rhumerus 35.8505 19.9779 -41.4784
rradius 61.1376 -0 0
rwrist -1.07998 0 0
rhand -5.20011 -42.2548 -0.00583935
rfingers 7.12502 -0 0
rthumb 20.6013 -71.1824 -0.00605859
2353
root 2.4472 14.8745 -20.2084 1026.9 -83.9913 64.1156
lfemur -41.5473 -1.70747 6.73147
ltibia 34.7473 0 0
lfoot -3.98886 8.91457 0
ltoes -23.2961 0 0
rfemur -59.1643 0.771305 8.45943
rtibia 75.4015 0 0
rfoot -19.4835 -15.8055 0
rtoes -1.66576 0 0
lowerback 21.5176 1.83828 -0.613846
upperback 0.218146 2.26606 0.591154
thorax -11.9152 1.076 0.308761
lowerneck -6.2743 2.27523 -1.32168
upperneck 4.19158 3.33489 -3.53256
head 2.45413 1.51751 -0.765933
lclavicle -1.70955e-014 1.59028e-015 0
lhumerus -3.04923 -34.2002 76.2885
lradius 109.098 0 0
lwrist 55.4105 0 0
lhand -21.828 397.885 0
lfingers 7.12502 0 0
lthumb 4.57482 -652.185 0
rclavicle -1.70955e-014 1.59028e-015 0
rhumerus 34.95 21.2761 -41.6019
rradius 62.3443 0 0
rwrist -1.65416 0 0
rhand -4.93833 -402.345 0
rfingers 7.12502 0 0
rthumb 20.8527 288.756 0
